/* XPM */
static const char * pqwx_appicon_32_xpm[] = {
"32 32 184 2",
"  	c None",
". 	c #D2D3D4",
"+ 	c #CECFD0",
"@ 	c #D8D7D7",
"# 	c #E2E2E3",
"$ 	c #F3F4F4",
"% 	c #FDFDFD",
"& 	c #D9DADB",
"* 	c #CBCCCD",
"= 	c #C5C6C8",
"- 	c #CFD0CF",
"; 	c #EAEAEB",
"> 	c #B7B8B9",
", 	c #CAD4F0",
"' 	c #869EE4",
") 	c #8AA1E6",
"! 	c #9EB2E8",
"~ 	c #A7B8E8",
"{ 	c #8BA4E8",
"] 	c #849DE7",
"^ 	c #809AE6",
"/ 	c #879FE7",
"( 	c #839CE6",
"_ 	c #CDD6EC",
": 	c #BEC1C2",
"< 	c #C3C4C4",
"[ 	c #B2B3B5",
"} 	c #E8E7E9",
"| 	c #B4C0E3",
"1 	c #7C95E0",
"2 	c #E0E0E3",
"3 	c #E1E1E3",
"4 	c #94A8E1",
"5 	c #9FB0E2",
"6 	c #B1BDE2",
"7 	c #ACB9E2",
"8 	c #DFDFE3",
"9 	c #8097E0",
"0 	c #ACBAE2",
"a 	c #9EA1A3",
"b 	c #DEE0E3",
"c 	c #7792DE",
"d 	c #D5D7DA",
"e 	c #D6D8DA",
"f 	c #9CABDA",
"g 	c #BAC3DC",
"h 	c #B3BEDC",
"i 	c #7A92DC",
"j 	c #AFB1B2",
"k 	c #9A9B9C",
"l 	c #C6C8C6",
"m 	c #7690DA",
"n 	c #CFD1D1",
"o 	c #B4BBD0",
"p 	c #8C9FD7",
"q 	c #99A9D7",
"r 	c #C5C9D0",
"s 	c #C9CBD0",
"t 	c #99A7D6",
"u 	c #859AD7",
"v 	c #CDCED0",
"w 	c #7791DA",
"x 	c #97989A",
"y 	c #A2A4A5",
"z 	c #738CD5",
"A 	c #9FABC9",
"B 	c #A6B2CF",
"C 	c #A7B1CF",
"D 	c #94A5D2",
"E 	c #C6C9CA",
"F 	c #A7B3CF",
"G 	c #A0AED1",
"H 	c #93A5D3",
"I 	c #98A6D0",
"J 	c #93A5D2",
"K 	c #ABACAD",
"L 	c #BBBCBD",
"M 	c #8B9BCB",
"N 	c #95A2C8",
"O 	c #A1ACC9",
"P 	c #ABB3C6",
"Q 	c #8E9FCE",
"R 	c #BABDC2",
"S 	c #8E9DCD",
"T 	c #8EA0CE",
"U 	c #6E88D5",
"V 	c #BDBDC1",
"W 	c #BEBEC1",
"X 	c #B4B5B9",
"Y 	c #6E88D1",
"Z 	c #A0AABE",
"` 	c #9DA7C2",
" .	c #ACB2C1",
"..	c #99A5C7",
"+.	c #8D9CCC",
"@.	c #788CCD",
"#.	c #768DCE",
"$.	c #B5B6B8",
"%.	c #90908F",
"&.	c #A5A6A8",
"*.	c #6982D0",
"=.	c #6480D4",
"-.	c #5F7CD5",
";.	c #A5ABBD",
">.	c #AEB1BA",
",.	c #5174DC",
"'.	c #8796C7",
").	c #919EC4",
"!.	c #ADAFB1",
"~.	c #75777A",
"{.	c #919BB8",
"].	c #6B83CB",
"^.	c #5B7AD5",
"/.	c #6B84CF",
"(.	c #637ED3",
"_.	c #7F91C6",
":.	c #5F7DD2",
"<.	c #5878D6",
"[.	c #8194C4",
"}.	c #ACB0AF",
"|.	c #A6A8AA",
"1.	c #878A8D",
"2.	c #A8A7A7",
"3.	c #8F9091",
"4.	c #8D97B5",
"5.	c #959DB3",
"6.	c #7589C8",
"7.	c #7087CA",
"8.	c #6580CF",
"9.	c #6B85CF",
"0.	c #AAABAD",
"a.	c #626465",
"b.	c #5A5B5C",
"c.	c #6C86CF",
"d.	c #6E7072",
"e.	c #6A6C6C",
"f.	c #B6B8B7",
"g.	c #6D86D0",
"h.	c #B2B4BB",
"i.	c #AFB3BC",
"j.	c #6A84D1",
"k.	c #7D807F",
"l.	c #888787",
"m.	c #6C6D71",
"n.	c #727475",
"o.	c #949799",
"p.	c #ADB3C0",
"q.	c #708AD5",
"r.	c #7189D2",
"s.	c #B5B7C2",
"t.	c #77797A",
"u.	c #797A7B",
"v.	c #8A8B8C",
"w.	c #66696A",
"x.	c #E0DEE0",
"y.	c #5E5F62",
"z.	c #7A7C81",
"A.	c #838485",
"B.	c #8C8F91",
"C.	c #5F6163",
"D.	c #D0CFD0",
"E.	c #52565A",
"F.	c #E0DEDE",
"G.	c #E7E8E6",
"H.	c #928F8F",
"I.	c #45484C",
"J.	c #545455",
"K.	c #4A4C4F",
"L.	c #E6E7E9",
"M.	c #EDEEF0",
"N.	c #9B9FA0",
"O.	c #4C4D50",
"P.	c #646668",
"Q.	c #929395",
"R.	c #EEF0F0",
"S.	c #7E8182",
"T.	c #38393A",
"U.	c #424549",
"V.	c #DEDEE0",
"W.	c #C8C6C5",
"X.	c #F0EEF0",
"Y.	c #C8C6C8",
"Z.	c #E7E8EB",
"`.	c #6D706F",
"                                                                ",
"                            . . . +                             ",
"                    . @ # $ $ % % % $ # & . *                   ",
"              = - ; % % % % % % % % % % % % $ @ =               ",
"          * > # % $ , ' ) ! ~ { ] ^ / ( _ $ $ % ; : :           ",
"        < [ ; } # | 1 2 3 4 5 # 3 6 7 8 9 0 # # } $ < [         ",
"      * a b & @ @ c d e d f e e @ @ g h e i e e @ & # j >       ",
"      k l * * * * m * n o p q r . s t u v w n * - * * e x *     ",
"    k y * : : < < z = = A B C D E F G H I J = : < < < * [ y     ",
"    y K L > > > L M N : O P : Q : R S T U V W W L L L L L a     ",
"    K y j j j j [ X Y > Z `  ...W W +.@.#.> W $.> [ [ $.$.y     ",
"    K %.K &.K K K j *.j $.=.-.;.$.$.>.,.'.).[ j j !.j K K k     ",
"    K ~.&.y a &.&.&.{.].*.^./.(.!.j _.:.<.[.}.|.K &.&.K 1.2.    ",
"    = ~.3.k k a a &.&.4.5.6.7.8.!.K 9.0.K }.|.|.&.&.a &.a..     ",
"    : . b.2.y y |.&.K K }.j j /.j [ c.j j j K K K |.$.d.y b     ",
"    [ !.K e.&.[ }.}.j j j $.f.g.h.i.j.> $.f.j j $.L k.l.< j     ",
"    j m.y L n.o.L > $.> > L L p.q.r.s.L L L L = K t.x W t.!.    ",
"    = l.n.K j a u.o.> = E E * * E + + n - < &.l.%.2.&.v.w.@     ",
"    < x.y.z.u.~.< K l.A.1.x |.$.[ [ a B.l.A.a L l.C.1.y.L b     ",
"    [ L D.a.~.b.E.y F.G.* x B.l.l.l.H.> F.F.[ m.I.~.w.K . > J.  ",
"    > n.j @ v.w.K.b.l.: L.; & e & & # M.* N.w.O.P.l.< E z.>     ",
"    < v.~.j . * x n.C.w.A.x Q.3.B.3.x 1.e.P.n.Q.L D.K B.n.e     ",
"    1.R.a.S.~.v.# @ [ Q.k.u.u.~.u.t.u.A.Q.K * # &.C.1.P.< =     ",
"    T.b . a.t.J.y.K # $ G.& * L L = @ F.; # L u.U.n.e.&.$ a.    ",
"      d.E & A.y.I.C.o.* # L.e V.& e x.; . |.n.I.b.z.W & B.U.    ",
"      b.z.W G.W.1.a.b.m.o.!.y k N.N.!.y t.a.P.A.> x.: Q.b.      ",
"        P.z.u.!.$ @ j l.n.e.e.e.e.e.e.~.l.|.* ; W.m.A.a.        ",
"          n.e.I.e.< ; X.# & . - * . @ F.} L.D.1.U.a.e.          ",
"            k w.U.a.x Y.; L.L.} ; # L.Z.. |.t.I.J.v.            ",
"                K t.w.S.|.> y k k a [ !.v.`.n.k &               ",
"                    # L y x Q.v.v.B.o.y L @ $                   ",
"                          % % $ % % %                           "};
