/* XPM */
static const char *Pqwx_appicon_xpm[] = {
/* columns rows colors chars-per-pixel */
"64 64 199 2 ",
"   c #2E2E2F",
".  c #393A3A",
"X  c #464646",
"o  c #4A4C4C",
"O  c #575859",
"+  c #5B5B5C",
"@  c #5E5F61",
"#  c #5E6164",
"$  c #636465",
"%  c #656669",
"&  c #67696B",
"*  c #6A6B6C",
"=  c #6C6E71",
"-  c #6F7173",
";  c #737475",
":  c #747678",
">  c #777879",
",  c #7A7B7C",
"<  c #7D7E81",
"1  c #3F63CF",
"2  c #3A60D0",
"3  c #4366CE",
"4  c #4C6DCD",
"5  c #506FCC",
"6  c #5472CB",
"7  c #5976CD",
"8  c #5D79CC",
"9  c #486AD3",
"0  c #4B6FD8",
"q  c #4E71D4",
"w  c #5271D1",
"e  c #5C7BD4",
"r  c #667EC6",
"t  c #627DCC",
"y  c #617ED3",
"u  c #7F8081",
"i  c #6B83C7",
"p  c #6680CC",
"a  c #6B83CB",
"s  c #7286C3",
"d  c #768BC5",
"f  c #7A8EC6",
"g  c #748BCB",
"h  c #7B8FCB",
"j  c #7E91C6",
"k  c #7F93CA",
"l  c #6480D3",
"z  c #6B85D3",
"x  c #6F89D6",
"c  c #6583DB",
"v  c #6A86DC",
"b  c #728BD4",
"n  c #728DDC",
"m  c #7B93D7",
"M  c #7F96DA",
"N  c #6282E3",
"B  c #6C8BE3",
"V  c #708DE3",
"C  c #7491E3",
"Z  c #7A95E6",
"A  c #7F99E6",
"S  c #7F99E8",
"D  c #838485",
"F  c #848689",
"G  c #86888A",
"H  c #8B8C8D",
"J  c #8D8E90",
"K  c #8F9092",
"L  c #929394",
"P  c #959698",
"I  c #989799",
"U  c #97989A",
"Y  c #9A9B9D",
"T  c #9D9FA1",
"R  c #9FA0A2",
"E  c #9AA4BF",
"W  c #A2A4A5",
"Q  c #A5A6A8",
"!  c #A8A7A9",
"~  c #A6A9AB",
"^  c #ABACAD",
"/  c #A0A6B6",
"(  c #ACAEB0",
")  c #A3AABD",
"_  c #A9AFBD",
"`  c #AFB0B1",
"'  c #ABB1BF",
"]  c #B2B4B5",
"[  c #B5B6B9",
"{  c #B7B8BA",
"}  c #BBBCBD",
"|  c #8394C3",
" . c #8B9AC5",
".. c #8395CB",
"X. c #8799CA",
"o. c #8B9CCC",
"O. c #8195D5",
"+. c #8599D6",
"@. c #8A9DD5",
"#. c #849ADB",
"$. c #899EDC",
"%. c #92A1C6",
"&. c #9BA5C2",
"*. c #9FA9C2",
"=. c #94A2CB",
"-. c #9AA6CA",
";. c #9CA8CD",
":. c #8DA0D7",
">. c #8DA0D9",
",. c #90A1D1",
"<. c #98A5D0",
"1. c #9BA9D3",
"2. c #97A8DB",
"3. c #A4ACC2",
"4. c #A8AFC2",
"5. c #A3ADCA",
"6. c #ADB2C1",
"7. c #A7B1C8",
"8. c #AAB4CE",
"9. c #B1B7C3",
"0. c #B4B9C4",
"q. c #BDBFC1",
"w. c #B3BACB",
"e. c #B9BEC9",
"r. c #A4B1D3",
"t. c #ACB6D3",
"y. c #ABB7DA",
"u. c #ABB8DA",
"i. c #B2BBD3",
"p. c #B8BED0",
"a. c #B2BCDA",
"s. c #869DE3",
"d. c #819BE8",
"f. c #8BA2E5",
"g. c #8DA4E9",
"h. c #97AAE6",
"j. c #96ACEB",
"k. c #9BAEEA",
"l. c #A1B2E3",
"z. c #ADBBE3",
"x. c #A4B6EB",
"c. c #ABBCEE",
"v. c #B1BEE4",
"b. c #BEC1C2",
"n. c #BEC2CB",
"m. c #BCC2D2",
"M. c #B7C1D8",
"N. c #BEC6DC",
"B. c #BFC8DD",
"V. c #BBC5E0",
"C. c #BEC9E6",
"Z. c #B7C4EC",
"A. c #B8C5ED",
"S. c #BFCBEE",
"D. c #C3C4C5",
"F. c #C5C7C9",
"G. c #C7C8CA",
"H. c #CACCCD",
"J. c #C5C9D1",
"K. c #CDCED0",
"L. c #C7CEDE",
"P. c #CACFDC",
"I. c #CFD0D1",
"U. c #CED3DD",
"Y. c #D2D3D4",
"T. c #D6D7D8",
"R. c #D7D8DA",
"E. c #DBDCDC",
"W. c #C3CBE4",
"Q. c #C2CCEA",
"!. c #CBD1E0",
"~. c #C9D3EF",
"^. c #D0D6E5",
"/. c #D6DAE3",
"(. c #DFDFE0",
"). c #DADEEB",
"_. c #C3CFF1",
"`. c #CCD5F3",
"'. c #CFD9F5",
"]. c #D2DAF2",
"[. c #DFE0E1",
"{. c #DEE1ED",
"}. c #DAE0F0",
"|. c #DCE3F9",
" X c #E3E4E4",
".X c #E4E5E9",
"XX c #E7E8E9",
"oX c #EBECEC",
"OX c #E1E5F2",
"+X c #E5E9F2",
"@X c #EEEFF1",
"#X c #EFF0F1",
"$X c #EFF2FC",
"%X c #F3F3F3",
"&X c #F8F7F7",
"*X c #F6F6F8",
"=X c #F6F8FD",
"-X c #FCFCFD",
";X c None",
/* pixels */
";X;X;X;X;X;X;X;X;X;X;X;X;X;X;X;X;X;X;X;X;X;X;X;X;X;X;X;X;X;X;X;X;X;X;X;X;X;X;X;X;X;X;X;X;X;X;X;X;X;X;X;X;X;X;X;X;X;X;X;X;X;X;X;X",
";X;X;X;X;X;X;X;X;X;X;X;X;X;X;X;X;X;X;X;X;X;X;X;X;X;X;X;X;X;X;X;X;X;X;X;X;X;X;X;X;X;X;X;X;X;X;X;X;X;X;X;X;X;X;X;X;X;X;X;X;X;X;X;X",
";X;X;X;X;X;X;X;X;X;X;X;X;X;X;X;X;X;X;X;X;X;X;X;X;X;X;X;X;X;X;X;X;X;X;X;X;X;X;X;X;X;X;X;X;X;X;X;X;X;X;X;X;X;X;X;X;X;X;X;X;X;X;X;X",
";X;X;X;X;X;X;X;X;X;X;X;X;X;X;X;X;X;X;X;X;X;X;X;X;X;X;X;X;X;X;X;X;X;X;X;X;X;X;X;X;X;X;X;X;X;X;X;X;X;X;X;X;X;X;X;X;X;X;X;X;X;X;X;X",
";X;X;X;X;X;X;X;X;X;X;X;X;X;X;X;X;X;X;X;X;X;X;X;X;X;X;X;X;X;X;X;X;X;X;X;X;X;X;X;X;X;X;X;X;X;X;X;X;X;X;X;X;X;X;X;X;X;X;X;X;X;X;X;X",
";X;X;X;X;X;X;X;X;X;X;X;X;X;X;X;X;X;X;X;X;X;X;X;X;X;X;X;X;XY.Y.Y.I.Y.Y.Y.;X;X;X;X;X;X;X;X;X;X;X;X;X;X;X;X;X;X;X;X;X;X;X;X;X;X;X;X",
";X;X;X;X;X;X;X;X;X;X;X;X;X;X;X;X;X;X;X;X;X;X;X;XY.H.F.F.F.H.H.I.H.I.H.G.G.F.G.H.;X;X;X;X;X;X;X;X;X;X;X;X;X;X;X;X;X;X;X;X;X;X;X;X",
";X;X;X;X;X;X;X;X;X;X;X;X;X;X;X;X;X;X;X;XY.D.D.H.R. X%X&X-X-X-X-X-X-X-X-X-X%XoX XI.D.D.H.;X;X;X;X;X;X;X;X;X;X;X;X;X;X;X;X;X;X;X;X",
";X;X;X;X;X;X;X;X;X;X;X;X;X;X;X;X;XT.D.} Y.oX-X-X-X-X-X-X-X-X-X-X-X-X-X-X-X-X-X-X-X-X*X XD.} G.;X;X;X;X;X;X;X;X;X;X;X;X;X;X;X;X;X",
";X;X;X;X;X;X;X;X;X;X;X;X;X;X;XY.{ D. X-X-X-X-X-X-X-X-X-X-X-X-X-X-X=X-X-X$X|.'.'.|.$X-X-X-X*XY.{ D.[.;X;X;X;X;X;X;X;X;X;X;X;X;X;X",
";X;X;X;X;X;X;X;X;X;X;X;X;XR.] b.oX-X-X%X_.j.d.S d.j.c.'.$X'.h.A Z Z g.S N V Z Z C C g.~.*X&X-X&XY.] D.;X;X;X;X;X;X;X;X;X;X;X;X;X",
";X;X;X;X;X;X;X;X;X;X;X;X} ^  X&X%X%X}.A V k.A.Q.A.x.s.B N B k.S.~.~.A.g.N S ].@X+X].x.V g.OX%X*X&X%XD.! R.;X;X;X;X;X;X;X;X;X;X;X",
";X;X;X;X;X;X;X;X;X;X X! } #X%XoX@X{.C f..X@X@X@X@X@XoXs.M ].@X@X@X@X@X@X{.h.V Q.@X@X@X.Xf.C }.@X@XoX&XE.W D.;X;X;X;X;X;X;X;X;X;X",
";X;X;X;X;X;X;X;X;XE.Y H.#XXXXXXXXXl.C  XXXXXXXoXXXXXz.V {.oXXXoXXXXXXXXXoXXXv.v C.oXXXXXXXs.$.oXXXXXXXoXXXQ [ XX;X;X;X;X;X;X;X;X",
";X;X;X;X;X;X;X;X(.I K.XX(. X X X[.n z. X X X X X.X(.n v.XX X X.XXX XXX XXX X Xu.v ^. X.X XW.v /. XXX X X XXXQ ] oX;X;X;X;X;X;X;X",
";X;X;X;X;X;X;XXXL D. XE.(.(.(.(.L.c L. XE. X(. X[.V.v /.[. X[.[. X X X X(. X X X$.s.[. X(.!.c !.(.(.(.(.(.[. XI } ;X;X;X;X;X;X;X",
";X;X;X;X;X;X@XW ^ (.E.E.E.R.E.E.J.l U.E.E.E.E.E.E.2.#.E.E.[.[.(.(.E.(.E.E.[.E.(.L.c B.E.E.B.c U.E.E.E.E.E.E.E.R.H Y.;X;X;X;X;X;X",
";X;X;X;X;X;XF.H E.Y.Y.Y.Y.Y.Y.Y.M.c P.R.R.R.E.R.R.M >.u.>.#.u.R.E.E.E.E.E.E.a.M b 0 2.E.E.u.z U.E.R.T.T.Y.T.T.E.} H oX;X;X;X;X;X",
";X;X;X;X;XoXH } Y.I.I.I.Y.I.Y.I.m.l m.Y.Y.Y.Y.Y.T.b 0 x O.x e r.T.T.T.T.T.u.y v @.x >.T.T.:.m Y.Y.Y.Y.Y.Y.I.Y.I.E.H } ;X;X;X;X;X",
";X;X;X;X;XI.D I.H.H.H.I.I.I.I.I.J.l t.Y.Y.Y.Y.Y.I.x :.I.M.z M x Y.Y.Y.Y.Y.@.O.1.u.b 1.Y.K.z 1.Y.Y.Y.I.I.I.I.I.K.I.] J  X;X;X;X;X",
";X;X;X;XY.R R H.G.G.G.G.H.H.H.H.K.b ,.K.K.K.K.K.K.b ;.I.K.K.i.l G.K.Y.K.I.:.k I.K.l 8.K.p.e p.K.I.H.H.K.H.H.H.H.H.H., (.;X;X;X;X",
";X;X;X;X@Xu ] D.D.D.D.D.D.D.G.G.F.X.g H.H.H.H.H.K.b <.K.K.H.m.e m.K.K.H.K.r.l J.K.l 8.K.,.z G.G.H.H.G.H.G.G.G.D.D.H.G D.W ;X;X;X",
";X;X;X;XoX; } q.b.b.b.D.D.D.D.D.D.5.8 n.G.G.G.G.H.a ;.G.H.H.m.e w.H.K.H.H.n.l 1.K.z ;.F.y =.F.F.G.G.D.D.D.D.D.D.D.G.L W H.;X;X;X",
";X;X;X;XXX; } } } } } } q.q.b.D.D.0.8 4.D.D.G.D.n.8 7.G.G.G.w.8 n.H.F.F.H.F.o.a F.g o.;.8 e.G.D.D.D.D.D.D.b.D.q.} D.I I (.;X;X;X",
";X;X;X;XXX- { { { { } } } } } } } b.a X.b.D.D.D.b.e 5.D.D.F.-.l b.F.G.G.D.D.b.8 ;.g ..z ..D.D.D.b.D.b.b.b.} q.} } b.L L (.;X;X;X",
";X;X;X;X@X* ^ ] ] { ] { { { } } } }  .t } q.b.b.b.g k D.D.b.p o.D.D.D.D.G.D.b.=.e 8 i 8 9.b.b.b.q.q.} } } } } { { b.D R E.;X;X;X",
";X;X;X;X&X; Y ] ` ] ] { { { { { { } ' 6 ) q.} q.b.*.6 *.b.4.8 9.D.b.D.b.D.b.b.e.8 3 4 X.b.b.} } } } } } { { [ [ ] } - } D.;X;X;X",
";X;X;X;X#XL u ] ` ` ` ` ] ] ] { { [ { i f } } } } q.d 3 g p 8 9.b.b.b.b.b.q.b.b.&.2 7 [ { 4.6.} } } { { { { [ ] { ` $  XJ ;X;X;X",
";X;X;X;XY.H.@ ^ ^ ^ ` ` ` ] ] ] ] { [ E 5 _ { } } *.6 j d 1 9 8 ' b.q.q.} q.q.{ t 6 6 8 8 4 4 _ { { ] { ] ] ] ] [ J , &X@ ;X;X;X",
";X;X;X;Xq.&X- G ^ ^ ^ ^ ^ ` ` ` ` ] [ ] i s { { ) 6 d ) d 6 3.a | } } } q.} } *.6 _ *.| i 3 i [ { { ] ] ] ] ` ` ] + } %X@ ;X;X;X",
";X;X;X;X} XXF.O ! ^ ^ ^ ^ ` ` ` ] ] [ [ / 5 j E 6 8 5 6 i 3.&.3 f } } q.} } } &.1 6 6 6 8  .] { { ] ] ] ] ` ` [ u ; #XH.G ;X;X;X",
";X;X;X;Xb.{ -XH * ] ^ ` ` ` ` ] ] ] [ { [ E 8 6 j *.4 6 i t 6 4 p b.b.q.D.b.b.X.t 3._ ] { { } { { { { { ] ] [ R + Y. X] ( ;X;X;X",
";X;X;X;XH.T K.*X* u ] ` ` ] ] ] ] [ { { } } { { } b.[ %.X.=.9.g w b.D.b.D.b.b.k g b.b.q.} } } } } } { { [ { ` O ] #X} ] } ;X;X;X",
";X;X;X;XY.R U R.oX$ D { ] ] ] { { { } } } } q.} b.b.b.b.b.D.D.h 4 b.D.D.D.D.D.p X.b.b.b.D.q.q.q.} { { { } ] + W #X^ ! ^ D.;X;X;X",
";X;X;X;X XK R G I.oX* ; { { { { } } } q.q.q.D.D.b.b.D.D.G.D.D...q n.D.G.F.D.n.7 -.D.D.D.D.q.q.q.} } } D.Q O W %XY W P ] b.;X;X;X",
";X;X;X;X@XI K W u H.%X, $ ^ b.{ { } } } q.b.b.b.D.D.G.D.D.G.F.X.w n.F.F.H.F.9.q 6.G.D.D.D.D.b.b.b.D.D.H + } @XW P ^ , Y.Y ;X;X;X",
";X;X;X;XY.D.> Q R J q.&X` + F { b.b.} D.b.D.D.D.D.D.G.G.D.H.G.-.q n.H.H.H.H.5.q b.G.G.D.D.D.D.G.G.^ * >  XR.R R ( H G @X* ;X;X;X",
";X;X;X;XD.oXH , W W ! Y  XXXF $ K } G.b.b.D.D.G.H.G.G.H.H.H.H.8.9 8.H.K.H.G.b z G.G.G.G.G.H.H.` > $ { %X] J ` ~ P > { %XO ;X;X;X",
";X;X;X;X} @XD., D R ` ^ > ! %XR.D $ D ] G.K.H.G.G.H.H.H.H.H.H.H.z x m.J.w.b q 8.I.I.I.I.G.R - * ^ %XY., , } ! L < J  XE.: ;X;X;X",
";X;X;X;X} G.#XY u , P { ^ & ; q.&X XR - * H ^ n.I.Y.Y.I.Y.Y.Y.I.m.x y e e x M.T.I.} R , * u b.%XE.P @ ; ] ` G F F G.oX{ R ;X;X;X",
";X;X;X;XG.R .X XL G , G { R * * D } oX&XT.W , * ; F I ^ ] b.D.G.F.n.7.E / W L , - ; G {  X%XY.Y , * ; ^ ^ , G H ` %XG.` { ;X;X;X",
";X;X;X;XY.W Q @XY.L L u , ^ P - < G U ` Y.#X-X#XY.] Y H u , ; > > ; > , D L W D.E.%X%XE.} W J H > ; U Y , L L ! #XD.! ] b.;X;X;X",
";X;X;X;X(.T U U oXY.L I H , H u - u U W ^ ] b.Y. X@X*X-X-X&X&X&X%X*X%X-X-X*X%XXXR.G.} ] ^ R L , - u u F Y P ! @X} Y Q ] G.;X;X;X",
";X;X;X;XXXY R P J oX(.I Y Y D > * * u U ^ { b.G.K.H.K.D.D.D.D.G.G.G.D.b.b.G.K.K.I.G.q.] W L > * - u U W L ] #X} G ` J H.^ ;X;X;X",
";X;X;X;X[.q.G ( K P (.#X^ I W R G > * ; H Q } G.Y.Y.T.K.D.q.} } } } } b.G.I.T.Y.H.D.] Y D ; ; u U ~ R U K.@X] U ! Y J XX, ;X;X;X",
";X;X;X;XF. XJ H ~ R W } &XY.Y Y ^ W P u ; ; u U ` D.Y.Y.H.D.D.D.b.b.D.G.Y.T.H.} W H , ; u H W ` ~ U ` oXE.U ! ! R D ] %X+ ;X;X;X",
";X;X;X;X! &X{ u H W ] Y H E.&XD.R R ^ ` W P G , : : , D H J J L P K K J H u , > , D L W ` ] ^ R ^ (.%X( ; ( ] Y u P E..X;X;X;X;X",
";X;X;X;X>  X XR u G W } L $ R XX&XI.^ R ^ ] ] ] ^ W I K H F D D D F F G J P R ^ ] { { ] W W ] (.%XD.> $ Q [ P D J q.@Xb.;X;X;X;X",
";X;X;X;Xo { #XY.I D , R } H # ; ! [.=XXXG.( ! ! ^ ] } } } } q.} } } q.q.b.q.} [ ^ W ! ] Y.oX@XD.H & & U { H u K ^ oXE.U ;X;X;X;X",
";X;X;X;X;XT q.=XG.I H > P ] F = < H ! H.@X&X%XE.G.{ ` ^ ! ^ ^ ^ ^ ^ ^ ^ ! ^ ( } H. X%X%XE.[ I F , = K ` D D U !  X(.} % ;X;X;X;X",
";X;X;X;X;X; T { *XD.Y L , F U < : H I R ^ q.Y. X&X&X&X&X%XoXXXXXXX XXXoX%X&X&X&XoXE.F.] ! R I D - u J u K R W  XR.W ~   ;X;X;X;X",
";X;X;X;X;X. R H ` &XH.W R H > : * : H Y ( { b.G.H.I.K.Y.Y.E.E.(.(.(.E.R.I.K.Y.H.H.D.b.[ ~ I D = * > F T W ^  XE.J ` - ;X;X;X;X;X",
";X;X;X;X;X;X% ( D ^ *XE.( Q Y J , * * D Y ` q.G.I.T.I.H.} } [ { } } { } D.I.Y.Y.H.D.} ~ L , = ; G Y ^ Q } oXY.P W R X ;X;X;X;X;X",
";X;X;X;X;X;X;XG ~ P ^  X#Xq.! ! W L u ; ; D I ] D.T.R.T.G.D.D.q.b.b.b.G.I.E.R.I.b.! J , ; , J R ( ^ ^ Y.%X{ R ! ~ + ;X;X;X;X;X;X",
";X;X;X;X;X;X;X+ J ~ ^ K } -X X{ ^ ` ^ R L D > > u H I ^ ^ ^ ^ ^ ^ ^ ^ ^ ^ W P D , > u J R ( ] ` ( G.%X(.J I { W * ;X;X;X;X;X;X;X",
";X;X;X;X;X;X;X;X$ G ^ { , u Y.-X Xb.` ` ] ] ! R L G D , , > : > , > > > > u G L Y ! ] { ] ` ] H.@XXX! $ J } W = , ;X;X;X;X;X;X;X",
";X;X;X;X;X;X;X;X;X* , ` [ : $ L T.&X@XY.q.] ] { } { { ] ] ( ^ ^ ^ ^ ` ` ] { } q.} { ] ] D.E.%XXX] , @ D } I * G ;X;X;X;X;X;X;X;X",
";X;X;X;X;X;X;X;X;X;X> - ! ^ : = < Y H.oX&X%XE.H.b.} } } } } q.D.b.b.q.} } } { } D.I. X%X%XR.` H > = u ] K & P ;X;X;X;X;X;X;X;X;X",
";X;X;X;X;X;X;X;X;X;X;XJ * L U : , H L R { Y.oX&X&X&XoX X(.T.Y.Y.Y.Y.Y.E.(. XoX&X&XoXE.D.^ Y L H : > L u > ^ ;X;X;X;X;X;X;X;X;X;X",
";X;X;X;X;X;X;X;X;X;X;X;X` < : < - , L W ` [ q.G.I.E. XXXoX%X%X%X&X%X%X@XoX X(.Y.H.D.} ] ! R H : * : > Y H.;X;X;X;X;X;X;X;X;X;X;X",
";X;X;X;X;X;X;X;X;X;X;X;X;X;X^ G - $ > L ! ] b.G.I.I.I.b.} } } q.} } } } D.H.Y.I.K.F.} ] Y G - & , Y D.;X;X;X;X;X;X;X;X;X;X;X;X;X",
";X;X;X;X;X;X;X;X;X;X;X;X;X;X;X;X} Y , ; u L ` D.I.R.R.I.D.D.q.} } } b.b.G.Y.E.Y.H.} W H , > H ^ H.;X;X;X;X;X;X;X;X;X;X;X;X;X;X;X",
";X;X;X;X;X;X;X;X;X;X;X;X;X;X;X;X;X;XK.{ I G D H I ` b.G.D.q.q.} } } q.D.G.D.] ! L D D J ! D.R.;X;X;X;X;X;X;X;X;X;X;X;X;X;X;X;X;X",
";X;X;X;X;X;X;X;X;X;X;X;X;X;X;X;X;X;X;X;X;X;X;X` W L H H H H H H H H H H H H K I ! } I.(.;X;X;X;X;X;X;X;X;X;X;X;X;X;X;X;X;X;X;X;X"
};
